<?xml version="1.0" encoding="UTF-8"?>
<svg enable-background="new 0 0 300 300" version="1.1" viewBox="0 0 300 300" xmlns="http://www.w3.org/2000/svg">
 <style type="text/css">.st0{fill:#54863F;} .st1{fill:#CEDD48;}</style>
 <path class="st0" d="m248.4 189.8c-22.7 56.1-85.1 83.7-139.4 61.8-54.3-22-80-85.2-57.4-141.3 22.7-56.1 85.1-83.8 139.4-61.8 54.4 21.9 80.1 85.2 57.4 141.3z"/>
 <path class="st1" d="m226.9 181.1c-22.7 56.1-75.5 87.6-118 70.4-42.4-17.1-58.5-76.5-35.8-132.6s75.5-87.6 118-70.4c42.4 17.1 58.5 76.5 35.8 132.6z"/>
 <path class="st0" d="m195.7 168.5c-22.7 56.1-61.5 93.3-86.7 83.1s-27.3-63.9-4.7-120c22.7-56.1 61.5-93.3 86.7-83.1 25.3 10.2 27.3 63.9 4.7 120z"/>
 <path class="st1" d="m168.4 157.4c-22.7 56.1-49.3 98.2-59.4 94.1s0-52.9 22.7-108.9c22.7-56.1 49.2-98.2 59.4-94.1 10.1 4.1-0.1 52.9-22.7 108.9z"/>
</svg>
